<svg xmlns="http://www.w3.org/2000/svg" xmlns:xlink="http://www.w3.org/1999/xlink" width="1639" height="2054" preserveAspectRatio="xMidYMid meet" viewBox="0 0 1639 2054" style="-ms-transform: rotate(360deg); -webkit-transform: rotate(360deg); transform: rotate(360deg);"><path d="M8 2000q-20-44 10-86l149-285q2-6 12-16q7-7 41-31q3-2 73-53q76-52 179-127l192-318q27-44 77-44h75q-26 30-48 64t-41 91t-19 114.5t30 133t94 148.5q44 50 53 99t-11 89t-63 78.5t-94 67t-114 55.5t-112.5 43.5T391 2054H90q-26 0-49-14.5T8 2000zM302 414q0-74 48.5-132.5T474 205q18-89 91-147T731 0q90 0 160 55.5T983 200h15q92 0 160 57.5t68 138.5q0 89-69 152q0 44-38.5 99.5T1035 713q-10 49-46 83.5T902 842q24 26 24 58q0 40-28 67t-68 27q-39 0-67-27.5T735 900q0-5 2.5-15t2.5-14h-5q-46 0-80-34t-34-80q0-19 19-57q-38-20-61-67h-67q-87-8-148.5-69.5T302 414zm492.5 825q-.5-26 8-57.5t17-50.5t22.5-47.5t20-43.5h40q44 0 70 34l7 11l140 265l496 558l4 3q34 43 9 94q-24 49-80 49H948q28-25 46.5-42t48.5-52.5t45-65.5t25-73.5t1-84t-40-89.5t-86-97t-93.5-93.5t-60-81.5t-30.5-73t-9.5-63z" fill="#626262"/><rect x="0" y="0" width="1639" height="2054" fill="rgba(0, 0, 0, 0)" /></svg>